<svg width="161" height="51" viewBox="0 0 161 51" fill="none" xmlns="http://www.w3.org/2000/svg">
<path d="M21.35 37.05C20.4167 37.8167 19.2667 38.4333 17.9 38.9C16.5667 39.3333 15.2167 39.55 13.85 39.55C11.5167 39.55 9.46667 39.1 7.7 38.2C5.93333 37.2667 4.55 35.9833 3.55 34.35C2.58333 32.6833 2.1 30.7 2.1 28.4C2.1 26.1 2.61667 24.1167 3.65 22.45C4.71667 20.7833 6.1 19.5167 7.8 18.65C9.53333 17.75 11.3667 17.3 13.3 17.3C15.0667 17.3 16.6333 17.55 18 18.05C19.3667 18.5167 20.55 19.1667 21.55 20L18.75 23.65C18.2167 23.2167 17.5167 22.8167 16.65 22.45C15.8167 22.05 14.8667 21.85 13.8 21.85C12.6667 21.85 11.6333 22.1333 10.7 22.7C9.8 23.2667 9.06667 24.05 8.5 25.05C7.96667 26.0167 7.7 27.1333 7.7 28.4C7.7 29.6 7.98333 30.7 8.55 31.7C9.11667 32.7 9.9 33.5 10.9 34.1C11.9 34.6667 13.05 34.95 14.35 34.95C15.1833 34.95 15.95 34.8333 16.65 34.6C17.3833 34.3333 18.0167 33.9833 18.55 33.55L21.35 37.05ZM32.1422 17.85L32.6422 23.85L32.4422 23C33.0422 21.7333 33.8589 20.65 34.8922 19.75C35.9589 18.8167 37.0422 18.1167 38.1422 17.65C39.2422 17.15 40.1422 16.9 40.8422 16.9L40.5922 22.5C38.9922 22.3667 37.5922 22.6667 36.3922 23.4C35.2255 24.1 34.3089 25.0333 33.6422 26.2C33.0089 27.3667 32.6922 28.6 32.6922 29.9V39H27.0922V17.85H32.1422ZM46.5746 17.85H52.1746V39H46.5746V17.85ZM46.3246 10.3C46.3246 9.43333 46.6579 8.71667 47.3246 8.15C48.0246 7.58333 48.7746 7.3 49.5746 7.3C50.3746 7.3 51.0913 7.58333 51.7246 8.15C52.3913 8.71667 52.7246 9.43333 52.7246 10.3C52.7246 11.1667 52.3913 11.8833 51.7246 12.45C51.0913 12.9833 50.3746 13.25 49.5746 13.25C48.7746 13.25 48.0246 12.9667 47.3246 12.4C46.6579 11.8333 46.3246 11.1333 46.3246 10.3ZM77.3559 37.05C76.4225 37.8167 75.2725 38.4333 73.9059 38.9C72.5725 39.3333 71.2225 39.55 69.8559 39.55C67.5225 39.55 65.4725 39.1 63.7059 38.2C61.9392 37.2667 60.5559 35.9833 59.5559 34.35C58.5892 32.6833 58.1059 30.7 58.1059 28.4C58.1059 26.1 58.6225 24.1167 59.6559 22.45C60.7225 20.7833 62.1059 19.5167 63.8059 18.65C65.5392 17.75 67.3725 17.3 69.3059 17.3C71.0725 17.3 72.6392 17.55 74.0059 18.05C75.3725 18.5167 76.5559 19.1667 77.5559 20L74.7559 23.65C74.2225 23.2167 73.5225 22.8167 72.6559 22.45C71.8225 22.05 70.8725 21.85 69.8059 21.85C68.6725 21.85 67.6392 22.1333 66.7059 22.7C65.8059 23.2667 65.0725 24.05 64.5059 25.05C63.9725 26.0167 63.7059 27.1333 63.7059 28.4C63.7059 29.6 63.9892 30.7 64.5559 31.7C65.1225 32.7 65.9059 33.5 66.9059 34.1C67.9059 34.6667 69.0559 34.95 70.3559 34.95C71.1892 34.95 71.9559 34.8333 72.6559 34.6C73.3892 34.3333 74.0225 33.9833 74.5559 33.55L77.3559 37.05Z" fill="white"/>
<path d="M91.748 39.55C89.748 39.55 87.9647 39.0833 86.398 38.15C84.8314 37.2167 83.598 35.8833 82.698 34.15C81.798 32.4167 81.348 30.4 81.348 28.1C81.348 25.7333 81.8314 23.7167 82.798 22.05C83.7647 20.3833 85.0814 19.1167 86.748 18.25C88.448 17.35 90.348 16.9 92.448 16.9C93.9814 16.9 95.448 17.2 96.848 17.8C98.248 18.3667 99.3647 19.2 100.198 20.3L100.098 22.2V-1.54972e-06H105.648V39H100.048V34.25L100.598 35.6C99.5314 36.7333 98.248 37.6833 96.748 38.45C95.2814 39.1833 93.6147 39.55 91.748 39.55ZM93.548 34.8C94.648 34.8 95.6147 34.6167 96.448 34.25C97.3147 33.8833 98.048 33.3667 98.648 32.7C99.2814 32 99.748 31.1833 100.048 30.25V25.75C99.7814 24.8833 99.3314 24.1167 98.698 23.45C98.098 22.7833 97.348 22.2667 96.448 21.9C95.548 21.5333 94.5814 21.35 93.548 21.35C92.348 21.35 91.248 21.6333 90.248 22.2C89.2814 22.7667 88.498 23.55 87.898 24.55C87.298 25.55 86.998 26.7 86.998 28C86.998 29.2667 87.298 30.4167 87.898 31.45C88.498 32.4833 89.298 33.3 90.298 33.9C91.298 34.5 92.3814 34.8 93.548 34.8ZM123.471 39.55C120.971 39.55 118.838 39.0667 117.071 38.1C115.305 37.1333 113.955 35.8 113.021 34.1C112.088 32.3667 111.621 30.4167 111.621 28.25C111.621 26.1167 112.155 24.2 113.221 22.5C114.288 20.8 115.721 19.45 117.521 18.45C119.355 17.4167 121.371 16.9 123.571 16.9C126.471 16.9 128.855 17.75 130.721 19.45C132.621 21.1167 133.888 23.4833 134.521 26.55L117.471 32.3L116.171 29.15L129.471 24.4L128.321 25.05C127.955 24.05 127.355 23.1833 126.521 22.45C125.721 21.7167 124.588 21.35 123.121 21.35C121.955 21.35 120.921 21.6333 120.021 22.2C119.121 22.7333 118.405 23.5 117.871 24.5C117.371 25.4667 117.121 26.6167 117.121 27.95C117.121 29.3167 117.405 30.5167 117.971 31.55C118.538 32.5833 119.305 33.3833 120.271 33.95C121.238 34.4833 122.338 34.75 123.571 34.75C124.438 34.75 125.271 34.6 126.071 34.3C126.871 34 127.621 33.6 128.321 33.1L130.871 37.25C129.771 37.95 128.555 38.5167 127.221 38.95C125.921 39.35 124.671 39.55 123.471 39.55ZM148.047 25.25L152.697 17.85H158.297L150.097 29.3L148.047 25.25ZM159.247 39H152.497L136.297 17.85H143.247L159.247 39ZM147.397 31.6L142.197 39H136.547L144.797 27.8L147.397 31.6Z" fill="#71FF4C"/>
<path d="M53 10.5C53 12.433 51.433 14 49.5 14C47.567 14 46 12.433 46 10.5C46 8.567 47.567 7 49.5 7C51.433 7 53 8.567 53 10.5Z" fill="#71FF4C"/>
</svg>
